[img]http://img849.imageshack.us/img849/4535/residentevilafterlife.jpg[/img]

[b][size=200][color=black]PLOT[/color][/size][/b]

[code]While still out to destroy the evil Umbrella Corporation, 
Alice joins a group of survivors who want to relocate to the mysterious 
but supposedly unharmed safe haven known only as Arcadia.[/code]

[b][size=200][color=black]IMDB[/color][/size][/b]

[code]http://www.imdb.com/title/tt1220634/[/code]

[b][size=200][color=black]MOVIE INFO[/color][/size][/b]

[code]Resident Evil Afterlife [2010] BRRip x264 AAC-V3nom

Format                                   : MPEG-4
Format profile                           : Base Media / Version 2
Codec ID                                 : mp42
File size                                : 319 MiB
Duration                                 : 1h 36mn
Overall bit rate mode                    : Variable
Overall bit rate                         : 460 Kbps
Encoded date                             : UTC 2013-01-15 12:25:36
Tagged date                              : UTC 2013-01-15 12:56:32

Video
ID                                       : 1
Format                                   : AVC
Format/Info                              : Advanced Video Codec
Format profile                           : Main@L2.1
Format settings, CABAC                   : Yes
Format settings, ReFrames                : 4 frames
Codec ID                                 : avc1
Codec ID/Info                            : Advanced Video Coding
Duration                                 : 1h 36mn
Bit rate mode                            : Variable
Bit rate                                 : 362 Kbps
Width                                    : 640 pixels
Height                                   : 272 pixels
Display aspect ratio                     : 2.40:1
Original display aspect ratio            : 2.40:1
Frame rate mode                          : Variable
Frame rate                               : 23.976 fps
Minimum frame rate                       : 5.994 fps
Maximum frame rate                       : 23.981 fps
Color space                              : YUV
Chroma subsampling                       : 4:2:0
Bit depth                                : 8 bits
Scan type                                : Progressive
Bits/(Pixel*Frame)                       : 0.087
Stream size                              : 249 MiB (78%)
Writing library                          : x264 core 112

Audio
ID                                       : 2
Format                                   : AAC
Format/Info                              : Advanced Audio Codec
Format profile                           : LC
Codec ID                                 : 40
Duration                                 : 1h 36mn
Bit rate mode                            : Variable
Bit rate                                 : 96.0 Kbps
Maximum bit rate                         : 181 Kbps
Channel(s)                               : 2 channels
Channel positions                        : Front: L R
Sampling rate                            : 44.1 KHz
Compression mode                         : Lossy
Delay relative to video                  : 209ms
Stream size                              : 66.5 MiB (21%)
Encoded date                             : UTC 2013-01-15 12:25:36
Tagged date                              : UTC 2013-01-15 12:56:28[/code]

[b][size=200][color=black]SOURCE[/color][/size][/b]

[code]Resident Evil Afterlife (2010) 720p BrRip x264 - 600MB - YIFY(Thanks)[/code]

[b][size=200][color=black]SCREENSHOTS[/color][/size][/b]

[img]http://img24.imageshack.us/img24/7599/residentevilafterlife20e.jpg[/img]

[img]http://kastatic.com/i2/users/133df62bbf28e62494bb17fe11078f1a.gif[/img][img]http://kastatic.com/i2/users/133df62bbf28e62494bb17fe11078f1a.gif[/img]